<?xml version="1.0" encoding="utf-8"?>
<!-- Generator: Adobe Illustrator 19.1.0, SVG Export Plug-In . SVG Version: 6.00 Build 0)  -->
<svg version="1.1" id="Calque_1" xmlns="http://www.w3.org/2000/svg" xmlns:xlink="http://www.w3.org/1999/xlink" x="0px" y="0px"
	 viewBox="0 0 220 36" style="enable-background:new 0 0 220 36;" xml:space="preserve">
<style type="text/css">
	.st0{fill-rule:evenodd;clip-rule:evenodd;fill:#181D1D;}
</style>
<g>
	<path class="st0" d="M46.9,17.9c-0.6-1.3-1.4-2.5-2.5-3.4c-1-0.9-2.3-1.6-3.7-2.1c-1.4-0.5-2.9-0.7-4.5-0.7c-1.6,0-3.1,0.2-4.5,0.7
		c-1.4,0.5-2.6,1.2-3.7,2.1c-1.1,0.9-1.9,2.1-2.5,3.4c-0.6,1.3-0.9,2.9-0.9,4.6c0,1.4,0.2,2.8,0.7,4.1c0.5,1.3,1.2,2.5,2.2,3.4
		c1,1,2.2,1.8,3.6,2.4c1.5,0.6,3.2,0.9,5.1,0.9c2,0,3.8-0.3,5.2-0.9C42.8,31.8,44,31,45,30c0.9-1,1.6-2.1,2.1-3.4
		c0.5-1.3,0.7-2.6,0.7-4v0C47.8,20.8,47.5,19.3,46.9,17.9L46.9,17.9z M43.4,15.5c0.9,0.8,1.6,1.8,2.2,3c0.5,1.2,0.8,2.5,0.8,4
		c0,1.3-0.2,2.5-0.6,3.6c-0.4,1.1-1,2.2-1.9,3c-0.8,0.9-1.9,1.6-3.2,2.1c-1.3,0.5-2.8,0.8-4.5,0.8h0c-1.7,0-3.3-0.3-4.6-0.8
		c-1.3-0.5-2.4-1.2-3.2-2.1c-0.8-0.9-1.5-1.9-1.9-3c-0.4-1.1-0.6-2.4-0.6-3.6c0-1.5,0.3-2.9,0.8-4c0.5-1.2,1.3-2.2,2.2-3
		c0.9-0.8,2-1.4,3.3-1.9c1.2-0.4,2.6-0.6,4.1-0.6c1.4,0,2.8,0.2,4,0.6C41.4,14.1,42.5,14.7,43.4,15.5z"/>
	<path class="st0" d="M18.4,13.7c-0.5-0.4-1.1-0.7-1.7-1c-0.9-0.4-1.9-0.7-2.9-0.8c-1-0.1-2.1-0.2-3.2-0.2c-1.5,0-2.8,0.1-4,0.3
		c-1.2,0.2-2.2,0.5-3,0.9c-0.9,0.4-1.5,0.9-2,1.5c-0.5,0.6-0.7,1.4-0.7,2.3c0,0.7,0.2,1.3,0.5,1.9c0.3,0.5,0.8,1,1.3,1.5
		c0.4,0.3,0.8,0.5,1.2,0.7c0.4,0.2,0.9,0.4,1.5,0.5c0.6,0.2,1.3,0.3,2.2,0.5c0.8,0.2,1.9,0.3,3.1,0.5l3.1,0.5
		c0.9,0.2,1.6,0.3,2.1,0.5c0.6,0.2,1,0.3,1.4,0.5c0.4,0.2,0.7,0.4,1,0.7c0.4,0.4,0.7,0.8,0.9,1.3c0.2,0.5,0.3,1,0.3,1.4
		c0,1.4-0.6,2.4-1.9,3.3c-0.9,0.6-1.9,1-3.2,1.3c-1.2,0.3-2.5,0.4-3.7,0.4c-2.4,0-4.4-0.3-6-0.9C3,30.5,1.8,29.7,1,28.8l-1,1
		c0.7,0.6,1.3,1.1,2,1.5c0.7,0.4,1.4,0.8,2.3,1.1c0.9,0.3,1.9,0.5,3,0.7c1.1,0.2,2.3,0.3,3.6,0.3c1.7,0,3.1-0.2,4.4-0.5
		c1.2-0.3,2.3-0.8,3.2-1.4c0.8-0.6,1.4-1.2,1.9-1.9c0.4-0.7,0.6-1.5,0.6-2.5c0-0.7-0.2-1.4-0.5-2c-0.3-0.7-0.7-1.2-1.2-1.6
		c-0.4-0.3-0.8-0.6-1.2-0.8c-0.4-0.2-1-0.4-1.6-0.6c-0.6-0.2-1.4-0.3-2.2-0.5c-0.9-0.2-1.9-0.3-3.1-0.5c-1.3-0.2-2.4-0.4-3.3-0.5
		c-0.8-0.2-1.5-0.3-2.1-0.4c-0.5-0.1-1-0.3-1.3-0.5c-0.3-0.2-0.7-0.4-1-0.6c-0.4-0.4-0.7-0.7-0.9-1.1c-0.2-0.4-0.2-0.7-0.2-1.1
		c0-0.6,0.2-1.1,0.5-1.5C3,14.7,3.5,14.4,4.1,14c0.8-0.4,1.8-0.7,2.9-0.9c1.1-0.1,2.3-0.2,3.5-0.2c2.2,0,4,0.3,5.4,0.9
		c1.4,0.6,2.3,1.3,2.9,2.2l1.1-0.9C19.5,14.6,18.9,14.1,18.4,13.7z"/>
	<path class="st0" d="M212.1,13.5v11.4c0,0.9,0.1,1.9,0.6,2.6c0.4,0.7,0.9,1.2,1.6,1.6c0.7,0.4,1.5,0.7,2.3,0.8
		c0.9,0.1,1.8,0.2,2.7,0.2c0.1,0,0.2,0,0.2,0l0.5,0v3.4l-0.4,0c-0.1,0-0.2,0-0.3,0c-1.1,0-2.2-0.1-3.3-0.3c-1.2-0.2-2.4-0.6-3.5-1.2
		c-1.1-0.6-2.1-1.5-2.8-2.6c-0.9-1.3-1.1-3-1.1-4.6c0-6.8,0-13.6,0-20.4V4.1h3.5v6.1h7.9v3.3H212.1z"/>
	<path class="st0" d="M186.2,16.8v16.3h-3.5V10.2h3.6l0,1l0,1.2l0,0.4c1.1-0.7,2.4-1.4,3.6-1.9c1.8-0.7,3.7-1.1,5.7-1.1
		c2.4,0,4.7,0.5,6.4,2.3c0.7,0.7,1.2,1.5,1.5,2.4c0.4,1,0.5,2.1,0.5,3.1v15.6h-3.5V17.6c0-0.6-0.1-1.2-0.2-1.8
		c-0.1-0.5-0.4-1-0.7-1.3c-0.4-0.4-0.9-0.7-1.4-0.9c-0.8-0.3-1.7-0.4-2.6-0.4c-1.5,0-3.1,0.4-4.5,0.9c-0.4,0.1-0.8,0.3-1.2,0.5
		c-0.4,0.2-0.9,0.5-1.3,0.7c-0.4,0.3-0.8,0.5-1.3,0.8L186.2,16.8z"/>
	<path class="st0" d="M157.4,22.9c0.1,1.1,0.4,2.2,0.9,3.2c0.5,0.9,1.2,1.8,2.1,2.4c0.8,0.6,1.7,1,2.7,1.3c0.9,0.3,1.9,0.4,2.9,0.4
		c1.1,0,2.2-0.1,3.2-0.3c1.1-0.2,2.2-0.4,3.2-0.6c0.9-0.2,1.8-0.4,2.7-0.7c0.5-0.2,1-0.3,1.5-0.5l0.6-0.2l0.3,3.4l-1.5,0.4
		c-0.9,0.3-1.9,0.5-2.8,0.7c-1.2,0.3-2.4,0.5-3.6,0.7c-1.1,0.2-2.3,0.3-3.5,0.3c-1.6,0-3.2-0.3-4.7-0.8c-1.6-0.5-3-1.4-4.1-2.5
		c-1.1-1.1-1.9-2.3-2.5-3.7c-0.7-1.6-0.9-3.4-0.9-5.2c0-1.7,0.3-3.3,1-4.9c0.6-1.4,1.6-2.7,2.7-3.7c1.1-1,2.4-1.7,3.7-2.2
		c1.5-0.6,3.2-0.8,4.8-0.8c1.6,0,3.1,0.3,4.5,0.9c1.5,0.6,2.7,1.5,3.8,2.7c1,1.1,1.7,2.3,2.3,3.7c0.7,1.7,0.9,3.6,0.9,5.4v0.4H157.4
		L157.4,22.9z M173.8,19.6c-0.2-0.7-0.4-1.4-0.8-2.1c-0.4-0.8-1-1.6-1.7-2.2c-0.7-0.7-1.5-1.2-2.4-1.5c-0.9-0.4-1.9-0.6-2.9-0.6
		c-1.2,0-2.3,0.2-3.4,0.6c-1,0.4-1.9,0.9-2.7,1.5c-0.7,0.6-1.3,1.4-1.8,2.2c-0.4,0.7-0.6,1.4-0.7,2.1H173.8z"/>
	<rect x="118.6" y="2.9" class="st0" width="3.5" height="30.3"/>
	<path class="st0" d="M73.1,13.4h9.1v-1.3h-9.1V6h-1.4c0,11.5,0,2.6,0,19.7c0,1.6,0.3,3,0.9,4c0.6,1,1.4,1.8,2.4,2.3
		c1,0.5,2,0.9,3.1,1.1c1.1,0.2,2.2,0.3,3.1,0.3c0.3,0,0.6,0,0.9,0v-1.2c-0.3,0-0.5,0-0.8,0c-1,0-1.9-0.1-2.9-0.2
		c-1-0.2-1.9-0.5-2.7-0.9c-0.8-0.5-1.4-1.1-1.9-1.9c-0.5-0.8-0.8-1.9-0.8-3.2V13.4z"/>
	<path class="st0" d="M61.4,4.2c0.9-0.2,1.9-0.3,2.9-0.3c1.8,0,3.4,0.3,4.8,0.8l0.5-1.2c-0.8-0.3-1.6-0.5-2.5-0.6
		c-0.9-0.1-1.8-0.2-2.8-0.2c-2.6,0-4.6,0.5-6.2,1.4c-2,1.2-3.1,3.1-3.1,5.7v2.4h-5v1.3h5v19.2h1.4V19.6v-6.1v-1.3v-0.9V9.8
		c0-1.1,0.2-2.1,0.7-2.9c0.5-0.8,1.1-1.4,1.8-1.8C59.6,4.7,60.4,4.4,61.4,4.2L61.4,4.2z M60.1,13.4v-1.3h6.7v1.3H60.1z"/>
	<polygon class="st0" points="90.8,18 103.1,5.6 105.6,3.1 103.1,0.7 85.8,18 103.1,35.3 105.6,32.9 103.1,30.4 	"/>
	<polygon class="st0" points="103.1,20.5 105.6,18 108.1,15.5 110.6,13 113,10.6 110.6,8.1 108.1,10.6 105.6,13 103.1,15.5 
		100.7,18 	"/>
	<path class="st0" d="M128.5,28.9c0.3,0.9,0.8,1.7,1.5,2.4c1.7,1.7,4.1,2.3,6.4,2.3c2,0,3.9-0.4,5.7-1.1c1.3-0.5,2.5-1.1,3.6-1.9
		l0,0.4l0,1.2l0,1h3.6V10.2h-3.5v16.3l-0.9,0.7c-0.4,0.3-0.8,0.6-1.3,0.8c-0.4,0.3-0.9,0.5-1.3,0.7c-0.4,0.2-0.8,0.4-1.2,0.5
		c-1.4,0.5-3,0.9-4.5,0.9c-0.8,0-1.8-0.1-2.6-0.4c-0.5-0.2-1-0.5-1.4-0.9c-0.4-0.4-0.6-0.8-0.7-1.3c-0.2-0.6-0.2-1.2-0.2-1.8V10.2
		H128v15.6C128,26.8,128.1,27.9,128.5,28.9z"/>
</g>
</svg>
